{
    "asset" : {
        "generator" : "Khronos glTF Blender I/O v3.3.27",
        "version" : "2.0"
    },
    "extensionsUsed" : [
        "KHR_materials_transmission",
        "KHR_materials_specular",
        "KHR_materials_ior"
    ],
    "scene" : 0,
    "scenes" : [
        {
            "name" : "Scene",
            "nodes" : [
                10
            ]
        }
    ],
    "nodes" : [
        {
            "mesh" : 0,
            "name" : "Forehead Pad"
        },
        {
            "mesh" : 1,
            "name" : "Nose Pad"
        },
        {
            "mesh" : 2,
            "name" : "Prescription Insert"
        },
        {
            "mesh" : 3,
            "name" : "Rear Strap",
            "translation" : [
                0,
                -0.18905436992645264,
                -0.007835304364562035
            ]
        },
        {
            "children" : [
                0,
                1,
                2,
                3
            ],
            "mesh" : 4,
            "name" : "Headset",
            "rotation" : [
                0.7071068286895752,
                0,
                0,
                0.7071068286895752
            ]
        },
        {
            "name" : "RearStrapRight",
            "rotation" : [
                0.08243100345134735,
                0.0010452105198055506,
                -0.06503152847290039,
                0.9944722056388855
            ],
            "scale" : [
                1.0000001192092896,
                1,
                1
            ],
            "translation" : [
                0.033183351159095764,
                0.1340566873550415,
                0.023213788866996765
            ]
        },
        {
            "children" : [
                5
            ],
            "name" : "RightTemple",
            "rotation" : [
                -0.006923656444996595,
                -8.972431686515847e-08,
                -0.007213524542748928,
                0.9999500513076782
            ],
            "scale" : [
                1,
                1.0000001192092896,
                1
            ],
            "translation" : [
                -0.0635296106338501,
                0.04452650249004364,
                -0.0561140738427639
            ]
        },
        {
            "name" : "RearStrapLeft",
            "rotation" : [
                -0.07459229230880737,
                -0.0011317485477775335,
                0.08572259545326233,
                0.9935222864151001
            ],
            "translation" : [
                -0.02183425985276699,
                0.13405665755271912,
                -0.034106846898794174
            ]
        },
        {
            "children" : [
                7
            ],
            "name" : "LeftTemple",
            "rotation" : [
                -0.006923656444996595,
                -8.924953220912357e-08,
                -0.007213456090539694,
                0.9999500513076782
            ],
            "scale" : [
                1,
                1.0000001192092896,
                1
            ],
            "translation" : [
                0.05346319079399109,
                0.04452650621533394,
                0.0657760351896286
            ]
        },
        {
            "children" : [
                6,
                8
            ],
            "name" : "Eyepiece",
            "rotation" : [
                -0.6439375877380371,
                0.2800377607345581,
                -0.2744929790496826,
                0.6569451093673706
            ],
            "scale" : [
                1,
                0.9999998807907104,
                1
            ]
        },
        {
            "children" : [
                4,
                9
            ],
            "name" : "ML2HeadsetArmature"
        }
    ],
    "materials" : [
        {
            "doubleSided" : true,
            "emissiveFactor" : [
                1,
                1,
                1
            ],
            "emissiveTexture" : {
                "index" : 0
            },
            "name" : "ML2 Headset",
            "normalTexture" : {
                "index" : 1
            },
            "pbrMetallicRoughness" : {
                "baseColorTexture" : {
                    "index" : 2
                },
                "metallicRoughnessTexture" : {
                    "index" : 3
                }
            }
        },
        {
            "doubleSided" : true,
            "extensions" : {
                "KHR_materials_transmission" : {
                    "transmissionFactor" : 1
                },
                "KHR_materials_specular" : {
                    "specularColorFactor" : [
                        1,
                        1,
                        1
                    ]
                },
                "KHR_materials_ior" : {
                    "ior" : 1.4500000476837158
                }
            },
            "name" : "ML2 Glass",
            "pbrMetallicRoughness" : {
                "baseColorFactor" : [
                    0.7589181661605835,
                    0.8000000715255737,
                    0.633334755897522,
                    1
                ],
                "metallicFactor" : 0.6545454859733582,
                "roughnessFactor" : 0
            }
        },
        {
            "doubleSided" : true,
            "extensions" : {
                "KHR_materials_transmission" : {
                    "transmissionFactor" : 1
                },
                "KHR_materials_ior" : {
                    "ior" : 1.4500000476837158
                }
            },
            "name" : "ML2 Glass Black",
            "pbrMetallicRoughness" : {
                "baseColorFactor" : [
                    0,
                    0,
                    0,
                    1
                ],
                "metallicFactor" : 0,
                "roughnessFactor" : 0
            }
        }
    ],
    "meshes" : [
        {
            "name" : "Forehead Pad",
            "primitives" : [
                {
                    "attributes" : {
                        "POSITION" : 0,
                        "NORMAL" : 1,
                        "TEXCOORD_0" : 2,
                        "COLOR_0" : 3
                    },
                    "indices" : 4,
                    "material" : 0
                }
            ]
        },
        {
            "name" : "Nose Pad",
            "primitives" : [
                {
                    "attributes" : {
                        "POSITION" : 5,
                        "NORMAL" : 6,
                        "TEXCOORD_0" : 7,
                        "COLOR_0" : 8
                    },
                    "indices" : 9,
                    "material" : 0
                }
            ]
        },
        {
            "name" : "PrescriptionInsert",
            "primitives" : [
                {
                    "attributes" : {
                        "POSITION" : 10,
                        "NORMAL" : 11,
                        "TEXCOORD_0" : 12,
                        "COLOR_0" : 13
                    },
                    "indices" : 14,
                    "material" : 0
                }
            ]
        },
        {
            "name" : "Rear Strap",
            "primitives" : [
                {
                    "attributes" : {
                        "POSITION" : 15,
                        "NORMAL" : 16,
                        "TEXCOORD_0" : 17,
                        "COLOR_0" : 18
                    },
                    "indices" : 19,
                    "material" : 0
                }
            ]
        },
        {
            "name" : "ML2 Headset",
            "primitives" : [
                {
                    "attributes" : {
                        "POSITION" : 20,
                        "NORMAL" : 21,
                        "TEXCOORD_0" : 22,
                        "COLOR_0" : 23
                    },
                    "indices" : 24,
                    "material" : 0
                },
                {
                    "attributes" : {
                        "POSITION" : 25,
                        "NORMAL" : 26,
                        "TEXCOORD_0" : 27,
                        "COLOR_0" : 28
                    },
                    "indices" : 29,
                    "material" : 1
                },
                {
                    "attributes" : {
                        "POSITION" : 30,
                        "NORMAL" : 31,
                        "TEXCOORD_0" : 32,
                        "COLOR_0" : 33
                    },
                    "indices" : 34,
                    "material" : 2
                }
            ]
        }
    ],
    "textures" : [
        {
            "sampler" : 0,
            "source" : 0
        },
        {
            "sampler" : 0,
            "source" : 1
        },
        {
            "sampler" : 0,
            "source" : 2
        },
        {
            "sampler" : 0,
            "source" : 3
        }
    ],
    "images" : [
        {
            "bufferView" : 5,
            "mimeType" : "image/png",
            "name" : "ML2_Headset_Emission"
        },
        {
            "bufferView" : 6,
            "mimeType" : "image/png",
            "name" : "ML2_Headset_Normal"
        },
        {
            "bufferView" : 7,
            "mimeType" : "image/png",
            "name" : "ML2_Headset_Diffuse"
        },
        {
            "bufferView" : 8,
            "mimeType" : "image/png",
            "name" : "ML2_Headset_RoughnessMetalness"
        }
    ],
    "accessors" : [
        {
            "bufferView" : 0,
            "componentType" : 5126,
            "count" : 600,
            "max" : [
                0.03874208405613899,
                -0.013655543327331543,
                -0.01404772698879242
            ],
            "min" : [
                -0.038742080330848694,
                -0.023257780820131302,
                -0.027736783027648926
            ],
            "type" : "VEC3"
        },
        {
            "bufferView" : 1,
            "componentType" : 5126,
            "count" : 600,
            "type" : "VEC3"
        },
        {
            "bufferView" : 2,
            "componentType" : 5126,
            "count" : 600,
            "type" : "VEC2"
        },
        {
            "bufferView" : 3,
            "componentType" : 5123,
            "count" : 600,
            "normalized" : true,
            "type" : "VEC4"
        },
        {
            "bufferView" : 4,
            "componentType" : 5123,
            "count" : 3000,
            "type" : "SCALAR"
        },
        {
            "bufferView" : 9,
            "componentType" : 5126,
            "count" : 454,
            "max" : [
                0.01192332711070776,
                -0.0044282530434429646,
                0.014151595532894135
            ],
            "min" : [
                -0.011923326179385185,
                -0.01966669410467148,
                -0.0061615039594471455
            ],
            "type" : "VEC3"
        },
        {
            "bufferView" : 10,
            "componentType" : 5126,
            "count" : 454,
            "type" : "VEC3"
        },
        {
            "bufferView" : 11,
            "componentType" : 5126,
            "count" : 454,
            "type" : "VEC2"
        },
        {
            "bufferView" : 12,
            "componentType" : 5123,
            "count" : 454,
            "normalized" : true,
            "type" : "VEC4"
        },
        {
            "bufferView" : 13,
            "componentType" : 5123,
            "count" : 2478,
            "type" : "SCALAR"
        },
        {
            "bufferView" : 14,
            "componentType" : 5126,
            "count" : 1704,
            "max" : [
                0.05221198499202728,
                -0.015315726399421692,
                0.02234674245119095
            ],
            "min" : [
                -0.05221198499202728,
                -0.024412885308265686,
                -0.01711338758468628
            ],
            "type" : "VEC3"
        },
        {
            "bufferView" : 15,
            "componentType" : 5126,
            "count" : 1704,
            "type" : "VEC3"
        },
        {
            "bufferView" : 16,
            "componentType" : 5126,
            "count" : 1704,
            "type" : "VEC2"
        },
        {
            "bufferView" : 17,
            "componentType" : 5123,
            "count" : 1704,
            "normalized" : true,
            "type" : "VEC4"
        },
        {
            "bufferView" : 18,
            "componentType" : 5123,
            "count" : 8856,
            "type" : "SCALAR"
        },
        {
            "bufferView" : 19,
            "componentType" : 5126,
            "count" : 60,
            "max" : [
                0.04579414799809456,
                0.012787346728146076,
                0.0070956856943666935
            ],
            "min" : [
                -0.04579412564635277,
                -0.006180853582918644,
                -0.007095678709447384
            ],
            "type" : "VEC3"
        },
        {
            "bufferView" : 20,
            "componentType" : 5126,
            "count" : 60,
            "type" : "VEC3"
        },
        {
            "bufferView" : 21,
            "componentType" : 5126,
            "count" : 60,
            "type" : "VEC2"
        },
        {
            "bufferView" : 22,
            "componentType" : 5123,
            "count" : 60,
            "normalized" : true,
            "type" : "VEC4"
        },
        {
            "bufferView" : 23,
            "componentType" : 5123,
            "count" : 228,
            "type" : "SCALAR"
        },
        {
            "bufferView" : 24,
            "componentType" : 5126,
            "count" : 11741,
            "max" : [
                0.08635387569665909,
                0.0016214471543207765,
                0.030118338763713837
            ],
            "min" : [
                -0.08635388314723969,
                -0.19796259701251984,
                -0.029048509895801544
            ],
            "type" : "VEC3"
        },
        {
            "bufferView" : 25,
            "componentType" : 5126,
            "count" : 11741,
            "type" : "VEC3"
        },
        {
            "bufferView" : 26,
            "componentType" : 5126,
            "count" : 11741,
            "type" : "VEC2"
        },
        {
            "bufferView" : 27,
            "componentType" : 5123,
            "count" : 11741,
            "normalized" : true,
            "type" : "VEC4"
        },
        {
            "bufferView" : 28,
            "componentType" : 5123,
            "count" : 56736,
            "type" : "SCALAR"
        },
        {
            "bufferView" : 29,
            "componentType" : 5126,
            "count" : 218,
            "max" : [
                0.07460778951644897,
                0.001078247674740851,
                0.026512935757637024
            ],
            "min" : [
                -0.07453182339668274,
                -0.01388876885175705,
                -0.025545861572027206
            ],
            "type" : "VEC3"
        },
        {
            "bufferView" : 30,
            "componentType" : 5126,
            "count" : 218,
            "type" : "VEC3"
        },
        {
            "bufferView" : 31,
            "componentType" : 5126,
            "count" : 218,
            "type" : "VEC2"
        },
        {
            "bufferView" : 32,
            "componentType" : 5123,
            "count" : 218,
            "normalized" : true,
            "type" : "VEC4"
        },
        {
            "bufferView" : 33,
            "componentType" : 5123,
            "count" : 648,
            "type" : "SCALAR"
        },
        {
            "bufferView" : 34,
            "componentType" : 5126,
            "count" : 30,
            "max" : [
                0.009677955880761147,
                0.0005073767388239503,
                -0.006228458136320114
            ],
            "min" : [
                -0.009677955880761147,
                -0.00010325048060622066,
                -0.016212111338973045
            ],
            "type" : "VEC3"
        },
        {
            "bufferView" : 35,
            "componentType" : 5126,
            "count" : 30,
            "type" : "VEC3"
        },
        {
            "bufferView" : 36,
            "componentType" : 5126,
            "count" : 30,
            "type" : "VEC2"
        },
        {
            "bufferView" : 37,
            "componentType" : 5123,
            "count" : 30,
            "normalized" : true,
            "type" : "VEC4"
        },
        {
            "bufferView" : 38,
            "componentType" : 5123,
            "count" : 120,
            "type" : "SCALAR"
        }
    ],
    "bufferViews" : [
        {
            "buffer" : 0,
            "byteLength" : 7200,
            "byteOffset" : 0,
            "target" : 34962
        },
        {
            "buffer" : 0,
            "byteLength" : 7200,
            "byteOffset" : 7200,
            "target" : 34962
        },
        {
            "buffer" : 0,
            "byteLength" : 4800,
            "byteOffset" : 14400,
            "target" : 34962
        },
        {
            "buffer" : 0,
            "byteLength" : 4800,
            "byteOffset" : 19200,
            "target" : 34962
        },
        {
            "buffer" : 0,
            "byteLength" : 6000,
            "byteOffset" : 24000,
            "target" : 34963
        },
        {
            "buffer" : 0,
            "byteLength" : 2393,
            "byteOffset" : 30000
        },
        {
            "buffer" : 0,
            "byteLength" : 17943,
            "byteOffset" : 32396
        },
        {
            "buffer" : 0,
            "byteLength" : 105810,
            "byteOffset" : 50340
        },
        {
            "buffer" : 0,
            "byteLength" : 103499,
            "byteOffset" : 156152
        },
        {
            "buffer" : 0,
            "byteLength" : 5448,
            "byteOffset" : 259652,
            "target" : 34962
        },
        {
            "buffer" : 0,
            "byteLength" : 5448,
            "byteOffset" : 265100,
            "target" : 34962
        },
        {
            "buffer" : 0,
            "byteLength" : 3632,
            "byteOffset" : 270548,
            "target" : 34962
        },
        {
            "buffer" : 0,
            "byteLength" : 3632,
            "byteOffset" : 274180,
            "target" : 34962
        },
        {
            "buffer" : 0,
            "byteLength" : 4956,
            "byteOffset" : 277812,
            "target" : 34963
        },
        {
            "buffer" : 0,
            "byteLength" : 20448,
            "byteOffset" : 282768,
            "target" : 34962
        },
        {
            "buffer" : 0,
            "byteLength" : 20448,
            "byteOffset" : 303216,
            "target" : 34962
        },
        {
            "buffer" : 0,
            "byteLength" : 13632,
            "byteOffset" : 323664,
            "target" : 34962
        },
        {
            "buffer" : 0,
            "byteLength" : 13632,
            "byteOffset" : 337296,
            "target" : 34962
        },
        {
            "buffer" : 0,
            "byteLength" : 17712,
            "byteOffset" : 350928,
            "target" : 34963
        },
        {
            "buffer" : 0,
            "byteLength" : 720,
            "byteOffset" : 368640,
            "target" : 34962
        },
        {
            "buffer" : 0,
            "byteLength" : 720,
            "byteOffset" : 369360,
            "target" : 34962
        },
        {
            "buffer" : 0,
            "byteLength" : 480,
            "byteOffset" : 370080,
            "target" : 34962
        },
        {
            "buffer" : 0,
            "byteLength" : 480,
            "byteOffset" : 370560,
            "target" : 34962
        },
        {
            "buffer" : 0,
            "byteLength" : 456,
            "byteOffset" : 371040,
            "target" : 34963
        },
        {
            "buffer" : 0,
            "byteLength" : 140892,
            "byteOffset" : 371496,
            "target" : 34962
        },
        {
            "buffer" : 0,
            "byteLength" : 140892,
            "byteOffset" : 512388,
            "target" : 34962
        },
        {
            "buffer" : 0,
            "byteLength" : 93928,
            "byteOffset" : 653280,
            "target" : 34962
        },
        {
            "buffer" : 0,
            "byteLength" : 93928,
            "byteOffset" : 747208,
            "target" : 34962
        },
        {
            "buffer" : 0,
            "byteLength" : 113472,
            "byteOffset" : 841136,
            "target" : 34963
        },
        {
            "buffer" : 0,
            "byteLength" : 2616,
            "byteOffset" : 954608,
            "target" : 34962
        },
        {
            "buffer" : 0,
            "byteLength" : 2616,
            "byteOffset" : 957224,
            "target" : 34962
        },
        {
            "buffer" : 0,
            "byteLength" : 1744,
            "byteOffset" : 959840,
            "target" : 34962
        },
        {
            "buffer" : 0,
            "byteLength" : 1744,
            "byteOffset" : 961584,
            "target" : 34962
        },
        {
            "buffer" : 0,
            "byteLength" : 1296,
            "byteOffset" : 963328,
            "target" : 34963
        },
        {
            "buffer" : 0,
            "byteLength" : 360,
            "byteOffset" : 964624,
            "target" : 34962
        },
        {
            "buffer" : 0,
            "byteLength" : 360,
            "byteOffset" : 964984,
            "target" : 34962
        },
        {
            "buffer" : 0,
            "byteLength" : 240,
            "byteOffset" : 965344,
            "target" : 34962
        },
        {
            "buffer" : 0,
            "byteLength" : 240,
            "byteOffset" : 965584,
            "target" : 34962
        },
        {
            "buffer" : 0,
            "byteLength" : 240,
            "byteOffset" : 965824,
            "target" : 34963
        }
    ],
    "samplers" : [
        {
            "magFilter" : 9729,
            "minFilter" : 9987
        }
    ],
    "buffers" : [
        {
            "byteLength" : 966064,
            "uri" : "data:application/octet-stream;base64,"
        }
    ]
}
